<?xml version="1.0" encoding="utf-8"?>
<!-- Generator: Adobe Illustrator 21.0.0, SVG Export Plug-In . SVG Version: 6.00 Build 0)  -->
<svg version="1.1" id="Layer_1" xmlns="http://www.w3.org/2000/svg" xmlns:xlink="http://www.w3.org/1999/xlink" x="0px" y="0px"
	 viewBox="0 0 48 48" style="enable-background:new 0 0 48 48;" xml:space="preserve">
<style type="text/css">
	.st0{opacity:0.19;enable-background:new    ;}
	.st1{fill:#947054;}
	.st2{fill:#B28E76;}
	.st3{fill:#AF8264;}
</style>
<ellipse class="st0" cx="23.5" cy="44.7" rx="10.4" ry="3.3"/>
<path class="st1" d="M23.5,0c-9.4,0-17,7.5-17,16.8s17,28,17,28s17-18.7,17-28S32.9,0,23.5,0z"/>
<circle class="st2" cx="23.5" cy="15.5" r="4.2"/>
<path class="st3" d="M23.4,12.2c2.2,0,4,1.6,4.3,3.8c0-0.2,0-0.3,0-0.5c0-2.3-1.9-4.2-4.2-4.2s-4.2,1.9-4.2,4.2c0,0.2,0,0.5,0,0.5
	C19.4,13.9,21.2,12.2,23.4,12.2z"/>
</svg>
