<svg id="ae99798b-6899-48fc-8d8a-84adfcd05a96" data-name="Layer 1" xmlns="http://www.w3.org/2000/svg" viewBox="0 0 107.28 68.38"><title>logo-BB-Imo-Real-Estate</title><g id="f3c504c8-1ec8-41da-82af-cd816a73578c" data-name="Layer_1"><g id="0f3de94e-ce65-4992-ae82-88874ecd78e8" data-name=" 1838751840"><path d="M39.17,30.08a5.53,5.53,0,1,0,5.53-5.39,5.68,5.68,0,0,0-2,.36l-1.53.59V12.74l1-.13a18.69,18.69,0,0,1,2.49-.17c9.8,0,18.16,7.68,18.16,17.64S54.44,47.72,44.63,47.72,26.48,40,26.48,30.08V0H39.17Z" transform="translate(0 0)" style="fill:#7a7a7a"/><path d="M12.69,43.06a5.53,5.53,0,1,0,5.53-5.39,5.68,5.68,0,0,0-2,.36l-1.53.59V25.72l1-.13a18.69,18.69,0,0,1,2.49-.17c9.8,0,18.16,7.68,18.16,17.64S28,60.69,18.16,60.69,0,53,0,43.06V13H12.69Z" transform="translate(0 0)" style="fill:#be0f0f"/><path d="M71.75,46.56c8.34,1,22.24,1.84,30.33,5.33,13.52,5.84-2.74,12.33-10.5,13.83C69.7,70,43.07,68,20.76,67.39c10.28-.17,21.44-.06,30.82-.5,13-.61,28.51-.49,40.16-6.83,12.8-7-16.66-12.5-20-13.5Z" transform="translate(0 0)" style="fill:#7a7a7a"/><g style="isolation:isolate"><path d="M40.07,60.57a.16.16,0,0,1,0,.09.18.18,0,0,1-.09.06l-.17,0-.26,0-.26,0-.17,0a.17.17,0,0,1-.09-.06.15.15,0,0,1,0-.09V52.74a.15.15,0,0,1,0-.09.2.2,0,0,1,.09-.06l.17,0,.25,0,.26,0,.17,0a.18.18,0,0,1,.09.06.16.16,0,0,1,0,.09Z" transform="translate(0 0)" style="fill:#be0f0f"/><path d="M50.54,60.57a.14.14,0,0,1,0,.09.19.19,0,0,1-.08.06l-.16,0h-.51l-.16,0a.19.19,0,0,1-.08-.06.15.15,0,0,1,0-.09V57.13a3.17,3.17,0,0,0-.06-.66,1.51,1.51,0,0,0-.2-.51,1,1,0,0,0-.35-.33,1.07,1.07,0,0,0-.5-.11,1.18,1.18,0,0,0-.72.28,5,5,0,0,0-.8.81v4a.14.14,0,0,1,0,.09.19.19,0,0,1-.08.06l-.16,0h-.5l-.16,0a.17.17,0,0,1-.08-.06.16.16,0,0,1,0-.09V57.13a2.88,2.88,0,0,0-.07-.66,1.61,1.61,0,0,0-.21-.51,1,1,0,0,0-.35-.33,1.05,1.05,0,0,0-.5-.11,1.2,1.2,0,0,0-.73.28,4.78,4.78,0,0,0-.79.81v4a.15.15,0,0,1,0,.09.19.19,0,0,1-.08.06l-.16,0h-.51l-.16,0a.17.17,0,0,1-.08-.06.16.16,0,0,1,0-.09V54.9a.18.18,0,0,1,0-.09.17.17,0,0,1,.08-.06l.14,0h.46a.37.37,0,0,1,.14,0,.2.2,0,0,1,.07.06.16.16,0,0,1,0,.09v.75a3.68,3.68,0,0,1,.93-.79,1.86,1.86,0,0,1,.91-.25,2.26,2.26,0,0,1,.63.08,1.74,1.74,0,0,1,.49.23,1.56,1.56,0,0,1,.37.35,2.06,2.06,0,0,1,.25.46,5.82,5.82,0,0,1,.54-.52,3.24,3.24,0,0,1,.49-.35,2,2,0,0,1,.46-.19,1.77,1.77,0,0,1,.45-.06,2,2,0,0,1,.92.19,1.67,1.67,0,0,1,.6.51,2.06,2.06,0,0,1,.33.75,4.13,4.13,0,0,1,.1.91Z" transform="translate(0 0)" style="fill:#be0f0f"/><path d="M57.71,57.68A4.27,4.27,0,0,1,57.53,59,2.84,2.84,0,0,1,57,60a2.47,2.47,0,0,1-.91.66,3.14,3.14,0,0,1-1.26.24,3.27,3.27,0,0,1-1.22-.21,2.24,2.24,0,0,1-.87-.6,2.57,2.57,0,0,1-.52-1A4.48,4.48,0,0,1,52,57.79a4.31,4.31,0,0,1,.18-1.28,2.78,2.78,0,0,1,.54-1,2.44,2.44,0,0,1,.9-.66,3.19,3.19,0,0,1,1.27-.23,3.27,3.27,0,0,1,1.22.21,2.21,2.21,0,0,1,.87.61,2.6,2.6,0,0,1,.52,1A4.35,4.35,0,0,1,57.71,57.68Zm-1.08.07a4.2,4.2,0,0,0-.09-.87,2.14,2.14,0,0,0-.28-.72,1.4,1.4,0,0,0-.53-.49,1.76,1.76,0,0,0-.84-.18,1.79,1.79,0,0,0-.8.16,1.47,1.47,0,0,0-.55.46,2.07,2.07,0,0,0-.32.71,3.61,3.61,0,0,0-.1.89,4.25,4.25,0,0,0,.09.88,2,2,0,0,0,.29.71,1.44,1.44,0,0,0,.54.49,1.77,1.77,0,0,0,.84.18,1.8,1.8,0,0,0,.79-.16,1.46,1.46,0,0,0,.55-.46,2,2,0,0,0,.32-.71A3.7,3.7,0,0,0,56.63,57.74Z" transform="translate(0 0)" style="fill:#be0f0f"/><path d="M66.66,58.44a2.37,2.37,0,0,1-.21,1,2.2,2.2,0,0,1-.59.76,2.52,2.52,0,0,1-.88.47,3.69,3.69,0,0,1-1.09.16,3.93,3.93,0,0,1-.76-.07,4.13,4.13,0,0,1-.62-.17A3,3,0,0,1,62,60.4a1.17,1.17,0,0,1-.26-.18.46.46,0,0,1-.11-.19,1.16,1.16,0,0,1,0-.31,1.87,1.87,0,0,1,0-.23.54.54,0,0,1,0-.15.16.16,0,0,1,.06-.08l.09,0a.51.51,0,0,1,.25.11,4,4,0,0,0,.41.23,4.06,4.06,0,0,0,.61.24,2.77,2.77,0,0,0,.82.11,2.08,2.08,0,0,0,.65-.1,1.53,1.53,0,0,0,.5-.27,1.14,1.14,0,0,0,.32-.43,1.39,1.39,0,0,0,.11-.57,1.07,1.07,0,0,0-.16-.59,1.63,1.63,0,0,0-.42-.43,3.74,3.74,0,0,0-.59-.34l-.68-.31a7.3,7.3,0,0,1-.67-.36,2.82,2.82,0,0,1-.59-.46,2.14,2.14,0,0,1-.42-.62,2.06,2.06,0,0,1-.16-.85,2.16,2.16,0,0,1,.19-.91,1.89,1.89,0,0,1,.52-.67,2.31,2.31,0,0,1,.79-.41,3.34,3.34,0,0,1,1-.14,3.23,3.23,0,0,1,.55,0,3.67,3.67,0,0,1,.52.13,2.75,2.75,0,0,1,.43.18,1.07,1.07,0,0,1,.25.16l.08.09a.34.34,0,0,1,0,.09,1.11,1.11,0,0,1,0,.13c0,.05,0,.12,0,.2s0,.14,0,.2a.78.78,0,0,1,0,.15.18.18,0,0,1-.05.09.12.12,0,0,1-.08,0,.51.51,0,0,1-.22-.09l-.36-.2a3.18,3.18,0,0,0-.51-.2,2.21,2.21,0,0,0-.66-.09,1.74,1.74,0,0,0-.59.09,1.2,1.2,0,0,0-.42.24,1,1,0,0,0-.25.36,1.19,1.19,0,0,0-.08.44,1.07,1.07,0,0,0,.16.59,1.62,1.62,0,0,0,.42.44,3.75,3.75,0,0,0,.6.35l.68.32c.23.11.46.22.68.35a2.84,2.84,0,0,1,.6.45,2.07,2.07,0,0,1,.42.62A2,2,0,0,1,66.66,58.44Z" transform="translate(0 0)" style="fill:#be0f0f"/><path d="M69.43,60a.86.86,0,0,1-.15.6.76.76,0,0,1-.54.15.73.73,0,0,1-.52-.15.83.83,0,0,1-.15-.58.87.87,0,0,1,.15-.6.76.76,0,0,1,.54-.15.74.74,0,0,1,.52.14A.84.84,0,0,1,69.43,60Z" transform="translate(0 0)" style="fill:#be0f0f"/><path d="M76.91,60.57a.19.19,0,0,1,0,.09.14.14,0,0,1-.08.06l-.18,0h-.57l-.17,0a.23.23,0,0,1-.1-.08.48.48,0,0,1-.06-.12L75,58.59c-.09-.22-.18-.42-.27-.6a1.94,1.94,0,0,0-.34-.47,1.41,1.41,0,0,0-.46-.31,1.68,1.68,0,0,0-.64-.11h-.72v3.47a.14.14,0,0,1,0,.09.19.19,0,0,1-.09.06l-.16,0-.26,0-.26,0-.17,0a.16.16,0,0,1-.09-.06.15.15,0,0,1,0-.09V53a.41.41,0,0,1,.13-.34.45.45,0,0,1,.27-.1h1.73l.51,0,.37,0a3.14,3.14,0,0,1,.83.26,2,2,0,0,1,.61.45,1.82,1.82,0,0,1,.37.62,2.5,2.5,0,0,1,0,1.51A1.79,1.79,0,0,1,76,56a2.09,2.09,0,0,1-.5.43,3.19,3.19,0,0,1-.65.31,1.54,1.54,0,0,1,.37.22,1.87,1.87,0,0,1,.3.32,3,3,0,0,1,.27.43q.13.25.25.55l.73,1.8c.06.15.1.26.11.32A.66.66,0,0,1,76.91,60.57Zm-1.63-5.73a1.46,1.46,0,0,0-.21-.81,1.21,1.21,0,0,0-.72-.48,2,2,0,0,0-.36-.06l-.52,0h-.91v2.75h1.06a2.35,2.35,0,0,0,.74-.1,1.44,1.44,0,0,0,.52-.29,1.14,1.14,0,0,0,.31-.44A1.51,1.51,0,0,0,75.28,54.84Z" transform="translate(0 0)" style="fill:#be0f0f"/><path d="M79.76,60a.87.87,0,0,1-.15.6.76.76,0,0,1-.54.15.74.74,0,0,1-.52-.15.84.84,0,0,1-.14-.58.86.86,0,0,1,.15-.6.75.75,0,0,1,.54-.15.74.74,0,0,1,.52.14A.84.84,0,0,1,79.76,60Z" transform="translate(0 0)" style="fill:#be0f0f"/><path d="M86,60.26a1.58,1.58,0,0,1,0,.21.61.61,0,0,1,0,.14.22.22,0,0,1-.07.09.16.16,0,0,1-.1,0H82.2a.45.45,0,0,1-.27-.1.41.41,0,0,1-.13-.34V52.74a.15.15,0,0,1,0-.09.16.16,0,0,1,.09-.06l.17,0,.26,0,.26,0,.17,0a.18.18,0,0,1,.09.06.16.16,0,0,1,0,.09v7.05h2.92a.17.17,0,0,1,.1,0,.23.23,0,0,1,.07.08A.52.52,0,0,1,86,60,1.67,1.67,0,0,1,86,60.26Z" transform="translate(0 0)" style="fill:#be0f0f"/><path d="M88.45,60a.86.86,0,0,1-.15.6.76.76,0,0,1-.54.15.73.73,0,0,1-.52-.15.83.83,0,0,1-.15-.58.87.87,0,0,1,.15-.6.76.76,0,0,1,.54-.15.74.74,0,0,1,.52.14A.84.84,0,0,1,88.45,60Z" transform="translate(0 0)" style="fill:#be0f0f"/></g></g></g></svg>